# Created by Metasequoia

mtllib crystal.mtl

v 0.582051 1.050034 0.775876
v 0.675771 1.077510 0.679714
v 0.571640 1.249559 0.659756
v 0.622536 0.904771 0.766145
v 0.638748 1.096218 0.767926
v 0.371929 0.848841 0.270859
v 0.262653 0.871715 0.364968
v 0.357891 1.025084 0.411253
v 0.269804 0.666717 0.324284
v 0.312003 0.869951 0.264236
v 0.675738 1.048928 0.756746
v 0.685231 1.026842 0.672102
v 0.550821 1.088531 0.750479
v 0.419054 0.878751 0.303739
v 0.265453 0.835789 0.297086
v 0.255699 0.826391 0.388255
v 0.838609 0.980317 0.403812
v 0.751083 0.592703 0.247749
v 0.804425 0.393964 0.275852
v 0.856652 0.678198 0.489831
v 0.992137 0.492224 0.659266
v 0.877931 0.159037 0.639831
v 0.905329 0.151839 0.481725
v 0.769464 0.144201 0.293098
v 0.688798 0.039883 0.359514
v 0.758065 0.072790 0.527172
v 0.604437 -0.115514 0.501152
v 0.970718 0.556665 0.400327
v 1.038213 0.416812 0.519833
v 0.982276 0.290524 0.513823
v 0.797915 0.655308 0.657481
v 0.843702 0.711376 0.568283
v 0.733739 0.860054 0.545022
v 1.011084 0.560085 0.502576
v 0.909468 0.335276 0.593465
v 0.780260 0.053538 0.431731
v 0.831164 0.283836 0.284941
v 0.946618 0.409198 0.629181
v 0.949244 0.665108 0.556963
v 0.047721 0.543427 0.445631
v 0.014182 0.431759 0.371804
v 0.100696 0.516486 0.641899
v 0.042221 0.321555 0.636860
v 0.049301 0.236401 0.375882
v 0.102142 0.215715 0.676179
v 0.121219 0.107856 0.418819
v 0.173477 0.101353 0.634428
v 0.223520 0.018019 0.517284
v 0.156486 0.769796 0.515576
v 0.010939 0.532429 0.573089
v -0.032925 0.361022 0.505614
v -0.029672 0.238233 0.520799
v 0.046323 0.122006 0.525056
v 0.476555 0.523097 0.544392
v 0.500000 0.527533 0.552919
v 0.472052 0.500000 0.552919
v 0.500000 0.500000 0.586616
v 0.476555 0.476903 0.544392
v 0.500000 0.472467 0.552919
v 0.523445 0.523097 0.544392
v 0.547657 0.546949 0.500000
v 0.527948 0.500000 0.552919
v 0.649176 0.500000 0.500000
v 0.523445 0.476903 0.544392
v 0.547657 0.453051 0.500000
v 0.452343 0.546949 0.500000
v 0.350824 0.500000 0.500000
v 0.452343 0.453051 0.500000
v 0.500000 0.708366 0.500000
v 0.500000 0.291634 0.500000
v 0.476555 0.523097 0.455608
v 0.500000 0.527533 0.447081
v 0.472052 0.500000 0.447081
v 0.500000 0.500000 0.413384
v 0.476555 0.476903 0.455608
v 0.500000 0.472467 0.447081
v 0.523445 0.523097 0.455608
v 0.547657 0.546949 0.500000
v 0.527948 0.500000 0.447081
v 0.649176 0.500000 0.500000
v 0.523445 0.476903 0.455608
v 0.547657 0.453051 0.500000
v 0.452343 0.546949 0.500000
v 0.350824 0.500000 0.500000
v 0.452343 0.453051 0.500000
v 0.500000 0.708366 0.500000
v 0.500000 0.291634 0.500000
v 0.464709 0.534767 0.566823
v 0.500000 0.541445 0.579658
v 0.457930 0.500000 0.579658
v 0.500000 0.500000 0.630381
v 0.464709 0.465233 0.566823
v 0.500000 0.458555 0.579658
v 0.535291 0.534767 0.566823
v 0.571737 0.570671 0.500000
v 0.542070 0.500000 0.579658
v 0.724552 0.500000 0.500000
v 0.535291 0.465233 0.566823
v 0.571737 0.429329 0.500000
v 0.428263 0.570671 0.500000
v 0.275448 0.500000 0.500000
v 0.428263 0.429329 0.500000
v 0.500000 0.813648 0.500000
v 0.500000 0.186352 0.500000
v 0.464709 0.534767 0.433177
v 0.500000 0.541445 0.420342
v 0.457930 0.500000 0.420342
v 0.500000 0.500000 0.369619
v 0.464709 0.465233 0.433177
v 0.500000 0.458555 0.420342
v 0.535291 0.534767 0.433177
v 0.571737 0.570671 0.500000
v 0.542070 0.500000 0.420342
v 0.724552 0.500000 0.500000
v 0.535291 0.465233 0.433177
v 0.571737 0.429329 0.500000
v 0.428263 0.570671 0.500000
v 0.275448 0.500000 0.500000
v 0.428263 0.429329 0.500000
v 0.500000 0.813648 0.500000
v 0.500000 0.186352 0.500000
v 0.450212 0.549049 0.594272
v 0.500000 0.558470 0.612379
v 0.440649 0.500000 0.612379
v 0.500000 0.500000 0.683939
v 0.450212 0.450951 0.594272
v 0.500000 0.441530 0.612379
v 0.549788 0.549049 0.594272
v 0.601205 0.599702 0.500000
v 0.559351 0.500000 0.612379
v 0.816793 0.500000 0.500000
v 0.549788 0.450951 0.594272
v 0.601205 0.400298 0.500000
v 0.398795 0.599702 0.500000
v 0.183207 0.500000 0.500000
v 0.398795 0.400298 0.500000
v 0.500000 0.942488 0.500000
v 0.500000 0.057512 0.500000
v 0.450212 0.549049 0.405728
v 0.500000 0.558470 0.387621
v 0.440649 0.500000 0.387621
v 0.500000 0.500000 0.316061
v 0.450212 0.450951 0.405728
v 0.500000 0.441530 0.387621
v 0.549788 0.549049 0.405728
v 0.601205 0.599702 0.500000
v 0.559351 0.500000 0.387621
v 0.816793 0.500000 0.500000
v 0.549788 0.450951 0.405728
v 0.601205 0.400298 0.500000
v 0.398795 0.599702 0.500000
v 0.183207 0.500000 0.500000
v 0.398795 0.400298 0.500000
v 0.500000 0.942488 0.500000
v 0.500000 0.057512 0.500000
v 0.582051 1.050034 0.775876
v 0.675771 1.077510 0.679714
v 0.571640 1.249559 0.659756
v 0.622536 0.904771 0.766145
v 0.638748 1.096218 0.767926
v 0.371929 0.848841 0.270859
v 0.262653 0.871715 0.364968
v 0.357891 1.025084 0.411253
v 0.269804 0.666717 0.324284
v 0.312003 0.869951 0.264236
v 0.675738 1.048928 0.756746
v 0.685231 1.026842 0.672102
v 0.550821 1.088531 0.750479
v 0.419054 0.878751 0.303739
v 0.265453 0.835789 0.297086
v 0.255699 0.826391 0.388255
v 0.838609 0.980317 0.403812
v 0.751083 0.592703 0.247749
v 0.804425 0.393964 0.275852
v 0.856652 0.678198 0.489831
v 0.992137 0.492224 0.659266
v 0.877931 0.159037 0.639831
v 0.905329 0.151839 0.481725
v 0.769464 0.144201 0.293098
v 0.688798 0.039883 0.359514
v 0.758065 0.072790 0.527172
v 0.604437 -0.115514 0.501152
v 0.970718 0.556665 0.400327
v 1.038213 0.416812 0.519833
v 0.982276 0.290524 0.513823
v 0.797915 0.655308 0.657481
v 0.843702 0.711376 0.568283
v 0.733739 0.860054 0.545022
v 1.011084 0.560085 0.502576
v 0.909468 0.335276 0.593465
v 0.780260 0.053538 0.431731
v 0.831164 0.283836 0.284941
v 0.946618 0.409198 0.629181
v 0.949244 0.665108 0.556963
v 0.047721 0.543427 0.445631
v 0.014182 0.431759 0.371804
v 0.100696 0.516486 0.641899
v 0.042221 0.321555 0.636860
v 0.049301 0.236401 0.375882
v 0.102142 0.215715 0.676179
v 0.121219 0.107856 0.418819
v 0.173477 0.101353 0.634428
v 0.223520 0.018019 0.517284
v 0.156486 0.769796 0.515576
v 0.010939 0.532429 0.573089
v -0.032925 0.361022 0.505614
v -0.029672 0.238233 0.520799
v 0.046323 0.122006 0.525056
# 208 vertices

vt 0.48593 0.15161
vt 0.48850 0.14289
vt 0.46506 0.08946
vt 0.47580 0.18606
vt 0.49600 0.14059
vt 0.50362 0.12343
vt 0.47609 0.02197
vt 0.46725 0.07604
vt 0.23263 0.24913
vt 0.22180 0.25820
vt 0.19415 0.25711
vt 0.23277 0.37680
vt 0.20406 0.21919
vt 0.23407 0.10431
vt 0.24033 0.27505
vt 0.24290 0.24052
vt 0.58252 0.40656
vt 0.59701 0.04170
vt 0.56444 0.29405
vt 0.55476 0.40148
vt 0.66117 0.38484
vt 0.64086 0.55834
vt 0.55019 0.49402
vt 0.51587 0.45020
vt 0.52828 0.24726
vt 0.54356 0.01551
vt 0.49630 0.31433
vt 0.49886 0.60040
vt 0.51252 0.70439
vt 0.56434 0.69995
vt 0.55247 0.58985
vt 0.60866 0.80864
vt 0.55345 0.83411
vt 0.62187 0.97313
vt 0.65496 0.83492
vt 0.64051 0.73654
vt 0.63188 0.62220
vt 0.50691 0.52928
vt 0.54216 0.32811
vt 0.87290 0.33536
vt 0.84766 0.44787
vt 0.91937 0.33990
vt 0.90207 0.02502
vt 0.89607 0.47800
vt 0.93887 0.58579
vt 0.90066 0.61889
vt 0.84632 0.65366
vt 0.98036 0.71664
vt 0.91536 0.75939
vt 0.97947 0.94425
vt 0.85803 0.81650
vt 0.90523 0.97641
vt 0.95174 0.33057
vt 0.01157 0.02714
vt 0.00873 0.02429
vt 0.00916 0.02364
vt 0.01029 0.02365
vt 0.00808 0.02473
vt 0.00809 0.02585
vt 0.00318 0.02852
vt 0.00743 0.02428
vt 0.00585 0.02362
vt 0.00698 0.02363
vt 0.00457 0.02013
vt 0.00742 0.02298
vt 0.00806 0.02141
vt 0.00806 0.02254
vt 0.01296 0.01874
vt 0.00872 0.02299
vt 0.00807 0.02363
vt 0.01154 0.00332
vt 0.00806 0.00680
vt 0.00727 0.00626
vt 0.00728 0.00489
vt 0.00860 0.00759
vt 0.00998 0.00758
vt 0.01324 0.01357
vt 0.00805 0.00839
vt 0.00724 0.01031
vt 0.00725 0.00893
vt 0.00299 0.01187
vt 0.00646 0.00840
vt 0.00455 0.00762
vt 0.00593 0.00761
vt 0.00129 0.00163
vt 0.00647 0.00681
vt 0.00726 0.00760
# 87 texture vertices

vn 0.00635 -0.21930 -0.97564
vn -0.95062 -0.24713 -0.18772
vn -0.80693 -0.54707 -0.22265
vn -0.19940 0.04280 -0.97898
vn 0.17496 0.38961 0.90421
vn 0.91064 -0.33073 0.24769
vn -0.21900 -0.61856 0.75460
vn -0.98801 0.08044 -0.13180
vn 0.21139 -0.45705 -0.86396
vn 0.99420 -0.02987 0.10329
vn -0.78684 -0.57678 -0.21958
vn -0.57934 -0.11343 0.80716
vn -0.74885 -0.00012 0.66274
vn -0.75383 -0.31456 -0.57688
vn -0.73386 0.58225 -0.34990
vn -0.78975 0.60509 0.10082
vn -0.69203 0.51123 0.50964
vn -0.63582 0.71200 0.29799
vn -0.59884 0.79935 -0.04935
vn -0.66651 0.73761 0.10815
vn -0.93575 -0.30343 0.17972
vn -0.95248 0.11417 0.28239
vn -0.94028 0.33980 0.02014
vn -0.53724 -0.56192 -0.62899
vn -0.59681 -0.53186 -0.60078
vn -0.94839 -0.24984 -0.19527
vn -0.76015 0.35335 -0.54527
vn -0.61357 0.77847 0.13239
vn -0.79050 0.20733 0.57630
vn -0.78668 0.32466 -0.52511
vn -0.65325 -0.49902 -0.56942
vn 0.87074 -0.44320 0.21304
vn 0.96981 -0.17572 0.16909
vn 0.54036 -0.31879 -0.77871
vn 0.82743 -0.14711 -0.54196
vn 0.83251 0.33513 0.44115
vn 0.75645 0.30549 -0.57832
vn 0.65450 0.73346 0.18350
vn 0.60690 0.72230 -0.33161
vn 0.50245 0.86159 -0.07219
vn 0.89303 -0.35252 -0.27970
vn 0.99353 0.01155 -0.11299
vn 0.70306 0.70680 -0.07836
vn -0.49988 0.45572 0.73651
vn -0.56218 0.38968 0.72945
vn -0.43696 -0.54664 0.71432
vn -0.50685 -0.51449 0.69166
vn -0.49988 -0.45572 0.73651
vn 0.56218 -0.38968 0.72945
vn 0.49988 0.45572 0.73651
vn 0.49526 0.42476 0.75782
vn 0.43696 0.54664 0.71432
vn 0.36426 0.57528 0.73238
vn 0.49988 -0.45572 0.73651
vn 0.49526 -0.42476 0.75782
vn -0.49526 0.42476 0.75782
vn -0.36426 -0.57528 0.73238
vn -0.49526 -0.42476 0.75782
vn -0.60623 0.25705 0.75261
vn 0.60623 -0.25705 0.75261
vn -0.49988 0.45572 -0.73651
vn -0.56218 0.38968 -0.72945
vn -0.43696 -0.54664 -0.71432
vn -0.50685 -0.51449 -0.69166
vn -0.49988 -0.45572 -0.73651
vn 0.56218 -0.38968 -0.72945
vn 0.49988 0.45572 -0.73651
vn 0.49526 0.42476 -0.75782
vn 0.43696 0.54664 -0.71432
vn 0.36426 0.57528 -0.73238
vn 0.49988 -0.45572 -0.73651
vn 0.49526 -0.42476 -0.75782
vn -0.49526 0.42476 -0.75782
vn -0.36426 -0.57528 -0.73238
vn -0.49526 -0.42476 -0.75782
vn -0.60623 0.25705 -0.75261
vn 0.60623 -0.25705 -0.75261
vn -0.49988 0.45572 0.73651
vn -0.56218 0.38968 0.72946
vn -0.43696 -0.54664 0.71432
vn -0.50685 -0.51449 0.69167
vn -0.49988 -0.45572 0.73651
vn 0.56218 -0.38968 0.72946
vn 0.49988 0.45572 0.73651
vn 0.49526 0.42475 0.75783
vn 0.43696 0.54664 0.71432
vn 0.36426 0.57527 0.73238
vn 0.49988 -0.45572 0.73651
vn 0.49526 -0.42475 0.75783
vn -0.49526 0.42475 0.75783
vn -0.36426 -0.57527 0.73238
vn -0.49526 -0.42475 0.75783
vn -0.60622 0.25705 0.75261
vn 0.60622 -0.25705 0.75261
vn -0.49988 0.45572 -0.73651
vn -0.56218 0.38968 -0.72946
vn -0.43696 -0.54664 -0.71432
vn -0.50685 -0.51449 -0.69167
vn -0.49988 -0.45572 -0.73651
vn 0.56218 -0.38968 -0.72946
vn 0.49988 0.45572 -0.73651
vn 0.49526 0.42475 -0.75783
vn 0.43696 0.54664 -0.71432
vn 0.36426 0.57527 -0.73238
vn 0.49988 -0.45572 -0.73651
vn 0.49526 -0.42475 -0.75783
vn -0.49526 0.42475 -0.75783
vn -0.36426 -0.57527 -0.73238
vn -0.49526 -0.42475 -0.75783
vn -0.60622 0.25705 -0.75261
vn 0.60622 -0.25705 -0.75261
vn -0.49988 0.45572 0.73651
vn -0.56218 0.38968 0.72946
vn -0.43696 -0.54664 0.71432
vn -0.50685 -0.51449 0.69167
vn -0.49988 -0.45572 0.73651
vn 0.56218 -0.38968 0.72946
vn 0.49988 0.45572 0.73651
vn 0.49526 0.42475 0.75783
vn 0.43696 0.54664 0.71432
vn 0.36426 0.57527 0.73238
vn 0.49988 -0.45572 0.73651
vn 0.49526 -0.42475 0.75783
vn -0.49526 0.42475 0.75783
vn -0.36426 -0.57527 0.73238
vn -0.49526 -0.42475 0.75783
vn -0.60622 0.25705 0.75261
vn 0.60622 -0.25705 0.75261
vn -0.49988 0.45572 -0.73651
vn -0.56218 0.38968 -0.72946
vn -0.43696 -0.54664 -0.71432
vn -0.50685 -0.51449 -0.69167
vn -0.49988 -0.45572 -0.73651
vn 0.56218 -0.38968 -0.72946
vn 0.49988 0.45572 -0.73651
vn 0.49526 0.42475 -0.75783
vn 0.43696 0.54664 -0.71432
vn 0.36426 0.57527 -0.73238
vn 0.49988 -0.45572 -0.73651
vn 0.49526 -0.42475 -0.75783
vn -0.49526 0.42475 -0.75783
vn -0.36426 -0.57527 -0.73238
vn -0.49526 -0.42475 -0.75783
vn -0.60622 0.25705 -0.75261
vn 0.60622 -0.25705 -0.75261
vn -0.00635 0.21930 0.97564
vn 0.95062 0.24713 0.18772
vn 0.80693 0.54707 0.22265
vn 0.19940 -0.04280 0.97898
vn -0.17496 -0.38961 -0.90421
vn -0.91064 0.33073 -0.24769
vn 0.21900 0.61856 -0.75460
vn 0.98801 -0.08044 0.13180
vn -0.21139 0.45705 0.86396
vn -0.99420 0.02987 -0.10329
vn 0.78684 0.57678 0.21958
vn 0.57934 0.11343 -0.80716
vn 0.74885 0.00012 -0.66274
vn 0.75383 0.31456 0.57688
vn 0.73386 -0.58225 0.34990
vn 0.78975 -0.60509 -0.10082
vn 0.69203 -0.51123 -0.50964
vn 0.63582 -0.71200 -0.29799
vn 0.59884 -0.79935 0.04935
vn 0.66651 -0.73761 -0.10815
vn 0.93575 0.30343 -0.17972
vn 0.95248 -0.11417 -0.28239
vn 0.94028 -0.33980 -0.02014
vn 0.53724 0.56192 0.62899
vn 0.59681 0.53186 0.60078
vn 0.94839 0.24984 0.19527
vn 0.76015 -0.35335 0.54527
vn 0.61357 -0.77847 -0.13239
vn 0.79050 -0.20733 -0.57630
vn 0.78668 -0.32466 0.52511
vn 0.65325 0.49902 0.56942
vn -0.87074 0.44320 -0.21304
vn -0.96981 0.17572 -0.16909
vn -0.54036 0.31879 0.77871
vn -0.82743 0.14711 0.54196
vn -0.83251 -0.33513 -0.44115
vn -0.75645 -0.30549 0.57832
vn -0.65450 -0.73346 -0.18350
vn -0.60690 -0.72230 0.33161
vn -0.50245 -0.86159 0.07219
vn -0.89303 0.35252 0.27970
vn -0.99353 -0.01155 0.11299
vn -0.70306 -0.70680 0.07836
vn 0.71930 -0.59246 0.36277
vn -0.63996 0.44445 -0.62683
vn -0.43696 0.54664 0.71432
vn -0.36426 0.57528 0.73238
vn 0.60623 0.25705 0.75261
vn 0.56218 0.38968 0.72945
vn 0.36426 -0.57528 0.73238
vn 0.43696 -0.54664 0.71432
vn -0.56218 -0.38968 0.72945
vn -0.60623 -0.25705 0.75261
vn -0.50685 0.51449 0.69166
vn 0.50685 0.51449 0.69166
vn 0.50685 -0.51449 0.69166
vn -0.36426 0.57528 -0.73238
vn -0.43696 0.54664 -0.71432
vn 0.60623 0.25705 -0.75261
vn 0.56218 0.38968 -0.72945
vn 0.36426 -0.57528 -0.73238
vn 0.43696 -0.54664 -0.71432
vn -0.60623 -0.25705 -0.75261
vn -0.56218 -0.38968 -0.72945
vn -0.50685 0.51449 -0.69166
vn 0.50685 0.51449 -0.69166
vn 0.50685 -0.51449 -0.69166
vn -0.43696 0.54664 0.71432
vn -0.36426 0.57527 0.73238
vn 0.60622 0.25705 0.75261
vn 0.56218 0.38968 0.72946
vn 0.36426 -0.57527 0.73238
vn 0.43696 -0.54664 0.71432
vn -0.56218 -0.38968 0.72946
vn -0.60622 -0.25705 0.75261
vn -0.50685 0.51449 0.69167
vn 0.50685 0.51449 0.69167
vn 0.50685 -0.51449 0.69167
vn -0.36426 0.57527 -0.73238
vn -0.43696 0.54664 -0.71432
vn 0.60622 0.25705 -0.75261
vn 0.56218 0.38968 -0.72946
vn 0.36426 -0.57527 -0.73238
vn 0.43696 -0.54664 -0.71432
vn -0.60622 -0.25705 -0.75261
vn -0.56218 -0.38968 -0.72946
vn -0.50685 0.51449 -0.69167
vn 0.50685 0.51449 -0.69167
vn 0.50685 -0.51449 -0.69167
vn -0.43696 0.54664 0.71432
vn -0.36426 0.57527 0.73238
vn 0.60622 0.25705 0.75261
vn 0.56218 0.38968 0.72946
vn 0.36426 -0.57527 0.73238
vn 0.43696 -0.54664 0.71432
vn -0.56218 -0.38968 0.72946
vn -0.60622 -0.25705 0.75261
vn -0.50685 0.51449 0.69167
vn 0.50685 0.51449 0.69167
vn 0.50685 -0.51449 0.69167
vn -0.36426 0.57527 -0.73238
vn -0.43696 0.54664 -0.71432
vn 0.60622 0.25705 -0.75261
vn 0.56218 0.38968 -0.72946
vn 0.36426 -0.57527 -0.73238
vn 0.43696 -0.54664 -0.71432
vn -0.60622 -0.25705 -0.75261
vn -0.56218 -0.38968 -0.72946
vn -0.50685 0.51449 -0.69167
vn 0.50685 0.51449 -0.69167
vn 0.50685 -0.51449 -0.69167
vn -0.71930 0.59246 -0.36277
vn 0.63996 -0.44445 0.62683
# 258 normal vertices

g background
usemtl mat1
f 4/4/4 1/3/1 5/2/1 11/1/4
g fireBack
f 4/4/8 11/1/2 2/6/2 12/5/8
g fireFront
f 11/1/2 5/2/3 3/7/3 2/6/2
g CrystalSet
f 3/7/9 5/2/1 1/3/1 13/8/9
g obj6
f 9/12/5 6/11/5 10/10/5 15/9/5
g CrystalCore
f 8/14/7 10/10/7 6/11/7 14/13/7
g CrystalBase1
f 9/12/10 15/9/6 7/16/6 16/15/10
g CrystalBase
f 10/10/189 8/14/189 7/16/6 15/9/6
g obj2
f 34/20/26 20/19/11 17/18/11 28/17/21
g TrapezohedronSet
f 19/22/13 28/17/12 17/18/12 18/21/12
g obj7
f 28/17/21 19/22/13 29/23/22 34/20/26
g TrapezohedronBase1
f 31/27/24 33/26/24 32/25/25 21/24/14
g TrapezohedronBase
f 30/31/23 23/30/16 22/29/15 35/28/27
g obj5
f 26/33/19 22/29/15 23/30/16 36/32/28
g SphereBase
f 25/35/18 27/34/20 26/33/19 36/32/28
g obj3
f 23/30/16 24/36/17 25/35/18 36/32/28
g obj8
f 24/36/17 23/30/16 30/31/23 37/37/29
g obj1
f 29/23/190 30/31/23 35/28/27 38/38/30
g obj4
f 30/31/23 29/23/22 19/22/13 37/37/29
g Crystal
f 21/24/14 34/20/26 29/23/22 38/38/30
f 34/20/26 21/24/14 32/25/25 39/39/31
f 49/43/32 50/42/41 41/41/33 40/40/32
f 43/45/35 51/44/42 41/41/33 50/42/41
f 44/47/36 41/41/33 51/44/42 52/46/36
f 45/48/37 52/46/37 51/44/42 43/45/35
f 47/50/39 53/49/43 52/46/37 45/48/37
f 53/49/43 46/51/38 44/47/36 52/46/36
f 47/50/39 48/52/40 46/51/38 53/49/43
f 49/43/34 42/53/34 43/45/35 50/42/41
f 68/57/58 58/56/48 56/55/46 67/54/57
f 66/59/56 67/54/192 56/55/191 54/58/44
f 66/59/56 54/58/44 55/61/45 69/60/59
f 55/61/194 60/63/50 61/62/51 69/60/193
f 62/65/52 63/64/53 61/62/51 60/63/50
f 62/65/196 64/67/54 65/66/55 63/64/195
f 59/69/49 70/68/60 65/66/55 64/67/54
f 68/57/58 70/68/198 59/69/197 58/56/48
f 56/55/46 58/56/48 59/69/197 57/70/47
f 56/55/191 57/70/199 55/61/45 54/58/44
f 55/61/194 57/70/200 62/65/52 60/63/50
f 59/69/49 64/67/54 62/65/196 57/70/201
f 73/55/63 75/56/65 85/57/75 84/54/74
f 73/55/203 84/54/202 83/59/73 71/58/61
f 72/61/62 71/58/61 83/59/73 86/60/76
f 78/62/68 77/63/67 72/61/205 86/60/204
f 78/62/68 80/64/70 79/65/69 77/63/67
f 82/66/72 81/67/71 79/65/207 80/64/206
f 82/66/72 87/68/77 76/69/66 81/67/71
f 76/69/209 87/68/208 85/57/75 75/56/65
f 76/69/209 75/56/65 73/55/63 74/70/64
f 72/61/62 74/70/210 73/55/203 71/58/61
f 79/65/69 74/70/211 72/61/205 77/63/67
f 79/65/207 81/67/71 76/69/66 74/70/212
f 102/74/92 92/73/82 90/72/80 101/71/91
f 100/76/90 101/71/214 90/72/213 88/75/78
f 100/76/90 88/75/78 89/78/79 103/77/93
f 89/78/216 94/80/84 95/79/85 103/77/215
f 96/82/86 97/81/87 95/79/85 94/80/84
f 96/82/218 98/84/88 99/83/89 97/81/217
f 93/86/83 104/85/94 99/83/89 98/84/88
f 102/74/92 104/85/220 93/86/219 92/73/82
f 90/72/80 92/73/82 93/86/219 91/87/81
f 90/72/213 91/87/221 89/78/79 88/75/78
f 89/78/216 91/87/222 96/82/86 94/80/84
f 93/86/83 98/84/88 96/82/218 91/87/223
f 107/72/97 109/73/99 119/74/109 118/71/108
f 107/72/225 118/71/224 117/76/107 105/75/95
f 106/78/96 105/75/95 117/76/107 120/77/110
f 112/79/102 111/80/101 106/78/227 120/77/226
f 112/79/102 114/81/104 113/82/103 111/80/101
f 116/83/106 115/84/105 113/82/229 114/81/228
f 116/83/106 121/85/111 110/86/100 115/84/105
f 110/86/231 121/85/230 119/74/109 109/73/99
f 110/86/231 109/73/99 107/72/97 108/87/98
f 106/78/96 108/87/232 107/72/225 105/75/95
f 113/82/103 108/87/233 106/78/227 111/80/101
f 113/82/229 115/84/105 110/86/100 108/87/234
f 136/74/126 126/73/116 124/72/114 135/71/125
f 134/76/124 135/71/236 124/72/235 122/75/112
f 134/76/124 122/75/112 123/78/113 137/77/127
f 123/78/238 128/80/118 129/79/119 137/77/237
f 130/82/120 131/81/121 129/79/119 128/80/118
f 130/82/240 132/84/122 133/83/123 131/81/239
f 127/86/117 138/85/128 133/83/123 132/84/122
f 136/74/126 138/85/242 127/86/241 126/73/116
f 124/72/114 126/73/116 127/86/241 125/87/115
f 124/72/235 125/87/243 123/78/113 122/75/112
f 123/78/238 125/87/244 130/82/120 128/80/118
f 127/86/117 132/84/122 130/82/240 125/87/245
f 141/72/131 143/73/133 153/74/143 152/71/142
f 141/72/247 152/71/246 151/76/141 139/75/129
f 140/78/130 139/75/129 151/76/141 154/77/144
f 146/79/136 145/80/135 140/78/249 154/77/248
f 146/79/136 148/81/138 147/82/137 145/80/135
f 150/83/140 149/84/139 147/82/251 148/81/250
f 150/83/140 155/85/145 144/86/134 149/84/139
f 144/86/253 155/85/252 153/74/143 143/73/133
f 144/86/253 143/73/133 141/72/131 142/87/132
f 140/78/130 142/87/254 141/72/247 139/75/129
f 147/82/137 142/87/255 140/78/249 145/80/135
f 147/82/251 149/84/139 144/86/134 142/87/256
f 160/2/146 156/3/146 159/4/149 166/1/149
f 157/6/147 166/1/147 159/4/153 167/5/153
f 158/7/148 160/2/148 166/1/147 157/6/147
f 156/3/146 160/2/146 158/7/154 168/8/154
f 165/10/150 161/11/150 164/12/150 170/9/150
f 161/11/152 165/10/152 163/14/152 169/13/152
f 162/16/151 170/9/151 164/12/155 171/15/155
f 162/16/151 163/14/257 165/10/257 170/9/151
f 172/18/156 175/19/156 189/20/171 183/17/166
f 172/18/157 183/17/157 174/22/158 173/21/157
f 184/23/167 174/22/158 183/17/166 189/20/171
f 187/25/170 188/26/169 186/27/169 176/24/159
f 177/29/160 178/30/161 185/31/168 190/28/172
f 178/30/161 177/29/160 181/33/164 191/32/173
f 181/33/164 182/34/165 180/35/163 191/32/173
f 180/35/163 179/36/162 178/30/161 191/32/173
f 185/31/168 178/30/161 179/36/162 192/37/174
f 190/28/172 185/31/168 184/23/258 193/38/175
f 174/22/158 184/23/167 185/31/168 192/37/174
f 184/23/167 189/20/171 176/24/159 193/38/175
f 187/25/170 176/24/159 189/20/171 194/39/176
f 196/41/178 205/42/186 204/43/177 195/40/177
f 196/41/178 206/44/187 198/45/180 205/42/186
f 206/44/187 196/41/178 199/47/181 207/46/181
f 206/44/187 207/46/182 200/48/182 198/45/180
f 207/46/182 208/49/188 202/50/184 200/48/182
f 199/47/181 201/51/183 208/49/188 207/46/181
f 201/51/183 203/52/185 202/50/184 208/49/188
f 198/45/180 197/53/179 204/43/179 205/42/186
# 130 elements

