# Created by Metasequoia

v -38.568001 -1.346200 0.000000
v -291.654297 -22.069300 0.000000
v -226.238602 -12.539900 0.000000
v -170.108597 -6.593000 0.000000
v -109.874496 -2.630800 0.000000
v -17.133087 -56.744122 -2.683732
v -110.260239 -289.492249 -6.214287
v -115.235680 -211.511932 -1.795795
v -97.518265 -156.820221 -0.826192
v -64.949020 -108.073410 -1.230668
v -163.784012 -258.008148 0.076231
v -210.270920 -216.197586 4.169882
v -247.739380 -165.705994 5.910927
v -274.565735 -108.550430 5.239775
v -153.441895 -179.792130 1.558258
v -184.723267 -141.376068 3.526451
v -207.888779 -97.277283 3.593988
v -221.897369 -49.266342 1.771166
v -221.935776 -49.754524 2.765013
v -207.904968 -97.897499 4.574989
v -184.669403 -142.137894 4.487791
v -153.266602 -180.690475 2.491032
v -124.947594 -129.377945 1.272438
v -146.552460 -97.255516 2.370622
v -161.399261 -61.320175 1.979558
v -168.809555 -23.034737 0.137388
v -168.910507 -23.361307 1.125427
v -161.527100 -61.752647 2.960533
v -146.671021 -97.818771 3.341166
v -125.012619 -130.085693 2.226734
v -25.747852 -47.303482 -1.274910
v -32.333099 -36.285892 -0.357228
v -36.604965 -24.143587 0.069016
v -38.375427 -11.376426 0.023992
v -109.465218 -12.412429 -0.477994
v -105.834610 -39.271828 0.735368
v -96.926094 -64.836685 0.956786
v -83.137794 -88.055077 0.144227
v -82.957230 -88.259575 1.096182
v -96.805939 -65.040512 1.918521
v -105.773758 -39.462704 1.705453
v -109.460152 -12.578546 0.498669
# 42 vertices

vt 0.19787 0.70632
vt 0.00411 0.98645
vt 0.00411 0.70632
vt 0.19787 0.98645
vt 0.46963 0.70632
vt 0.46963 0.98645
vt 0.65365 0.70632
vt 0.65365 0.98645
vt 0.81477 0.70632
vt 0.81477 0.98645
vt 0.99064 0.70632
vt 0.99064 0.98645
vt 0.00411 0.50288
vt 0.19787 0.50288
vt 0.46963 0.50288
vt 0.65365 0.50288
vt 0.81477 0.50288
vt 0.99064 0.50288
vt 0.81477 0.32074
vt 0.99064 0.32074
vt 0.65365 0.32074
vt 0.46963 0.32074
vt 0.19787 0.32074
vt 0.00411 0.32074
vt 0.81477 0.02136
vt 0.99064 0.02136
vt 0.65365 0.02136
vt 0.46963 0.02136
vt 0.19787 0.02136
vt 0.00411 0.02136
# 30 texture vertices

vn 0.00004 -0.00239 -1.00000
vn 0.00441 -0.05373 -0.99855
vn 0.00041 -0.03487 -0.99939
vn -0.00369 0.01045 -0.99994
vn 0.00106 0.03179 -0.99949
vn -0.06576 0.04860 -0.99665
vn -0.07058 0.04283 -0.99659
vn -0.05019 0.04505 -0.99772
vn 0.07485 -0.03976 0.99640
vn -0.05109 0.02321 -0.99842
vn -0.06847 0.02389 -0.99737
vn -0.05641 0.01068 -0.99835
vn 0.01421 0.01653 0.99976
vn 0.00267 0.03967 0.99921
vn -0.05439 0.03117 -0.99803
vn -0.03989 0.00657 -0.99918
vn -0.01910 -0.02452 -0.99952
vn -0.00431 -0.04799 -0.99884
vn -0.00291 0.04932 0.99878
vn 0.01041 0.01506 0.99983
vn 0.02787 -0.00783 0.99958
vn 0.06113 -0.03268 0.99759
vn -0.04500 0.01797 -0.99883
vn -0.02823 -0.00258 -0.99960
vn -0.01121 -0.03143 -0.99944
vn -0.00435 -0.03495 -0.99938
vn -0.00040 0.05821 0.99830
vn 0.01135 0.03114 0.99945
vn 0.02844 0.00232 0.99959
vn 0.05665 -0.02683 0.99803
vn 0.06434 -0.04116 0.99708
vn 0.03784 -0.01864 0.99911
vn 0.01635 0.00876 0.99983
vn 0.00449 0.01472 -0.99988
vn -0.00008 -0.00073 -1.00000
vn -0.00868 -0.02298 -0.99970
vn -0.02746 0.00625 -0.99960
vn -0.04829 0.02623 -0.99849
vn 0.06066 -0.03193 0.99765
vn 0.03369 -0.00333 0.99943
vn 0.01535 0.02459 0.99958
vn 0.00386 0.04390 0.99903
vn 0.03308 -0.01612 0.99932
vn -0.01217 -0.04157 -0.99906
vn -0.03090 -0.01063 -0.99947
vn 0.07293 -0.04368 0.99638
vn 0.08102 -0.04513 0.99569
vn 0.08704 -0.05082 0.99491
vn -0.05354 0.02863 -0.99816
vn -0.00779 0.07092 0.99745
vn -0.00398 0.06108 0.99812
vn 0.00083 0.03422 0.99941
vn 0.07533 -0.04458 0.99616
vn -0.00004 0.00239 1.00000
vn 0.00413 0.01905 0.99981
vn -0.00291 -0.00607 -0.99998
vn -0.02517 0.02398 -0.99940
vn -0.05295 0.04896 -0.99740
vn 0.08400 -0.05612 0.99488
vn -0.01376 0.06501 0.99779
# 60 normal vertices

g obj1
f 8/3/8 7/2/7 15/1/15
f 7/2/7 11/4/11 15/1/15
f 15/1/15 11/4/11 16/5/16
f 11/4/11 12/6/12 16/5/16
f 21/5/21 20/7/20 12/6/43
f 20/7/20 13/8/13 12/6/43
f 20/7/20 19/9/19 13/8/13
f 19/9/19 14/10/14 13/8/13
f 2/12/2 3/11/3 18/9/18
f 14/10/44 2/12/2 18/9/18
f 17/7/17 13/8/45 14/10/44
f 18/9/18 17/7/17 14/10/44
f 13/8/45 17/7/17 16/5/16
f 12/6/12 13/8/45 16/5/16
f 12/6/43 11/4/46 22/1/22
f 21/5/21 12/6/43 22/1/22
f 8/3/47 22/1/22 11/4/46
f 7/2/48 8/3/47 11/4/46
f 22/1/22 8/3/47 9/13/9
f 30/14/30 22/1/22 9/13/9
f 15/1/15 23/14/23 9/13/49
f 8/3/8 15/1/15 9/13/49
f 23/14/23 15/1/15 16/5/16
f 24/15/24 23/14/23 16/5/16
f 21/5/21 22/1/22 30/14/30
f 29/15/29 21/5/21 30/14/30
f 20/7/20 21/5/21 29/15/29
f 28/16/28 20/7/20 29/15/29
f 24/15/24 16/5/16 17/7/17
f 25/16/25 24/15/24 17/7/17
f 28/16/28 27/17/27 19/9/19
f 20/7/20 28/16/28 19/9/19
f 18/9/18 26/17/26 25/16/25
f 17/7/17 18/9/18 25/16/25
f 3/11/3 4/18/4 26/17/26
f 18/9/18 3/11/3 26/17/26
f 27/17/27 4/18/51 3/11/50
f 19/9/19 27/17/27 3/11/50
f 35/19/35 26/17/26 4/18/4
f 5/20/5 35/19/35 4/18/4
f 4/18/51 27/17/27 42/19/42
f 5/20/52 4/18/51 42/19/42
f 27/17/27 28/16/28 41/21/41
f 42/19/42 27/17/27 41/21/41
f 36/21/36 25/16/25 26/17/26
f 35/19/35 36/21/36 26/17/26
f 40/22/40 41/21/41 28/16/28
f 29/15/29 40/22/40 28/16/28
f 37/22/37 24/15/24 25/16/25
f 36/21/36 37/22/37 25/16/25
f 29/15/29 30/14/30 39/23/39
f 40/22/40 29/15/29 39/23/39
f 24/15/24 37/22/37 38/23/38
f 23/14/23 24/15/24 38/23/38
f 23/14/23 38/23/38 10/24/10
f 9/13/49 23/14/23 10/24/10
f 10/24/53 39/23/39 30/14/30
f 9/13/9 10/24/53 30/14/30
f 34/25/34 35/19/35 5/20/5
f 1/26/1 34/25/34 5/20/5
f 34/25/55 1/26/54 5/20/52
f 42/19/42 34/25/55 5/20/52
f 42/19/42 41/21/41 33/27/33
f 34/25/55 42/19/42 33/27/33
f 33/27/56 36/21/36 35/19/35
f 34/25/34 33/27/56 35/19/35
f 32/28/32 33/27/33 41/21/41
f 40/22/40 32/28/32 41/21/41
f 32/28/57 37/22/37 36/21/36
f 33/27/56 32/28/57 36/21/36
f 31/29/31 32/28/32 40/22/40
f 39/23/39 31/29/31 40/22/40
f 37/22/37 32/28/57 31/29/58
f 38/23/38 37/22/37 31/29/58
f 38/23/38 31/29/58 6/30/6
f 10/24/10 38/23/38 6/30/6
f 6/30/59 31/29/31 39/23/39
f 10/24/53 6/30/59 39/23/39
f 19/9/19 3/11/50 2/12/60
f 14/10/14 19/9/19 2/12/60
# 80 elements

